<svg xmlns="http://www.w3.org/2000/svg" id="Layer_2" viewBox="0 0 198.64 62.62">
    <defs>
        <style>
            .cls-1{fill:#000325;}.cls-1,.cls-2,.cls-3,.cls-4{stroke-width:0px;}.cls-2{fill:#f5c600;}.cls-2,.cls-3,.cls-4{fill-rule:evenodd;}.cls-3{fill:#0da0ff;}.cls-4{fill:#ff2153;}</style>
    </defs>
    <g id="Layer_1-2">
        <g id="Logo_Color">
            <path id="Text" class="cls-1"
                d="M185.94,26.7c0-1.25,1.16-2.07,3.69-2.07,2.1,0,4.76.88,6.86,1.98l1.59-3.35c-2.95-1.87-5.98-2.75-9.1-2.75-4.62,0-8.22,2.92-8.22,6.38,0,7.14,12.79,5.9,12.79,9.27,0,1.73-2.07,2.27-3.97,2.27-2.27,0-4.93-.77-7.8-2.1l-.65,3.71c2.66,1.73,5.78,2.49,8.76,2.49,4.62,0,8.76-2.47,8.76-6.86.03-6.61-12.7-5.87-12.7-8.99ZM167.23,25.09c1.76,0,3.99.81,5.3,1.92,1.15-1.15,2.05-2.05,2.58-2.58-1.98-2.38-5.21-3.88-8.7-3.88-6.27,0-11.45,4.93-11.45,11s5.19,11,11.45,11c3.49,0,6.72-1.53,8.7-3.91-1.39-1.39-2.26-2.26-2.6-2.59-1.36,1.27-3.5,1.97-5.29,1.97-4.05,0-7.31-2.86-7.31-6.46s3.26-6.46,7.31-6.46ZM137.83,20.55c-5.53,0-10.06,4.9-10.06,11s4.54,11,10.06,11,10.06-4.9,10.06-11-4.48-11-10.06-11ZM137.83,38.36c-2.95,0-5.33-3.06-5.33-6.8s2.38-6.8,5.33-6.8,5.39,3.06,5.39,6.8-2.38,6.8-5.39,6.8ZM110.16,21.01h-7.88v21.09s2.81,0,7.88,0c5.78,0,10.55-4.76,10.55-10.55.03-5.78-4.76-10.55-10.55-10.55ZM110.16,37.62h-3.4v-12.13h3.4c3.32,0,6.07,2.75,6.07,6.07s-2.75,6.07-6.07,6.07ZM84.71,20.55c-5.53,0-10.06,4.9-10.06,11s4.54,11,10.06,11,10.06-4.9,10.06-11-4.48-11-10.06-11ZM84.71,38.36c-2.95,0-5.33-3.06-5.33-6.8s2.38-6.8,5.33-6.8,5.39,3.06,5.39,6.8-2.38,6.8-5.39,6.8ZM58.14,20.5c-4.93,0-8.99,4.11-8.99,9.12v12.77h4.48v-5h8.99v5h4.54v-12.77c0-5-4.05-9.12-9.01-9.12ZM62.68,32.83h-8.99v-3.19c0-2.5,2.01-4.54,4.48-4.54s4.48,2.04,4.48,4.54v3.19h.03Z"></path>
            <path id="Bottom" class="cls-4"
                d="M9.95,31.81L0,41.76l20.86,20.86,19.9-19.9h-19.87s-3.65-3.64-10.94-10.91Z"></path>
            <path id="Middle" class="cls-2" d="M22.54,41.19h18.6l-9.3-9.3-9.3,9.3Z"></path>
            <path id="Top" class="cls-3" d="M.54,20.27l20.35,20.35,20.27-20.27L20.81,0,.54,20.27Z"></path>
        </g>
    </g>
</svg>